<?xml version="1.0" encoding="UTF-8"?><svg id="a" xmlns="http://www.w3.org/2000/svg" viewBox="0 0 1220 864">
  <path d="M565.53,627.72c-64.96,81.54-173.71,139.22-278.61,139.43l-239.26.47v-146.12s231.28,0,231.28,0c45.03-1.17,87.6-15.7,124.38-41.15,24.31-16.82,44.2-38.04,60.18-62.89,23.33-36.26,41.7-87.52,53.92-129.13,47.78-162.6,191.31-277.65,362.63-280.41l133.26-.22.25-70.11,181.51,141.54-181.44,143.07-.26-67.88-133.42.04c-65.76.36-131.31,28.31-173.38,79.32-35.11,42.57-58.15,90.1-72.66,143.33-16.08,58.99-29.53,101.93-68.39,150.71Z"/>
  <path d="M603.27,613.83c63,78.63,164.49,130.42,265.82,130.48l167.4.11.35,44.71,119.29-93.99-119.35-94.81-.3,44.54-168.51-.6c-88.94-.32-178.88-60.4-217.52-141.02l9.91-33.62c12.89,28.69,27.76,55.55,49.38,78.74,41.72,44.75,100.61,72.69,162.2,72.85l141.38.36.13-68.6,38.53,30.11,141.31,112.02-179.68,141.39-.25-68.96h-150.45c-106.19-3.23-204.68-53.61-273.6-133.71l13.96-19.99Z"/>
  <path d="M70.37,231.25h204.6c41.18,1.01,80.49,11.94,116.41,31.47,47.14,25.63,83.46,65.46,105.57,114.38l-10.06,32.09c-7.58-16.33-14.45-31.31-23.58-46.56-39.78-66.52-109.81-105.43-186.96-108.25H47.64s0-146.64,0-146.64l225.27.09c68.5,1.96,134.79,21.36,192.52,57.87,36.14,22.86,68.39,51.47,93.65,85.55l-13.59,20.03c-63.5-87.48-165.57-137.87-273.64-140.55l-201.43-.03-.05,100.55Z"/>
</svg>